<?xml version="1.0" encoding="utf-8"?>
<!-- Generator: Adobe Illustrator 27.5.0, SVG Export Plug-In . SVG Version: 6.00 Build 0)  -->
<svg version="1.2" baseProfile="tiny-ps" id="Ebene_1" xmlns="http://www.w3.org/2000/svg" xmlns:xlink="http://www.w3.org/1999/xlink"
	 viewBox="0 0 216 216" xml:space="preserve">
<title>PUZZLE ITC</title>
<path fill="#1E5A96" d="M178.7,37.3C139.7-1.8,76.3-1.8,37.3,37.3s-39.1,102.4,0,141.4s102.4,39.1,141.4,0c0,0,0,0,0,0
	C217.8,139.7,217.8,76.3,178.7,37.3z M173.1,70.6c-3.4,10.1-14.2,40.2-14.2,40.2c-3.6,9.8-24.8,9.7-53.6,9.8c0,0,18.6-2.6,24-13
	c5.4-10.4,11.7-31.4,11.7-31.4c-28.7,0-31.2,10-31.2,10s-18.1,50.6-24.6,69.3c-50.2,0-42.2-24.8-42.2-24.8l25.1-70.4H119l-3.4,10.1
	c0,0,4.1-10.1,32.2-10.1C147.8,60.4,176.5,60.5,173.1,70.6z"/>
</svg>
